<mxfile host="app.diagrams.net" modified="2024-07-01T02:24:11.675Z" agent="Mozilla/5.0 (Macintosh; Intel Mac OS X 10_15_7) AppleWebKit/537.36 (KHTML, like Gecko) Chrome/126.0.0.0 Safari/537.36" version="24.6.3" etag="4oxXGY0WgZF8UMQHi-H6" type="github">
  <diagram name="第 1 页" id="ShB9VrYiJNYVQQKTecI2">
    <mxGraphModel>
      <root>
        <mxCell id="0" />
        <mxCell id="1" parent="0" />
      </root>
    </mxGraphModel>
  </diagram>
</mxfile>
